<svg xmlns="http://www.w3.org/2000/svg" width="16" height="15" fill="none"><path fill="#fff" d="M3.27 14.56h10.078c1.582 0 2.402-.82 2.402-2.38V3.266c0-1.567-.82-2.38-2.402-2.38H3.27c-1.582 0-2.402.813-2.402 2.38v8.914c0 1.567.82 2.38 2.402 2.38Zm-.022-1.436c-.608 0-.945-.322-.945-.959V5.397c0-.644.337-.959.945-.959h10.107c.616 0 .96.315.96.96v6.767c0 .637-.344.96-.96.96H3.248ZM6.896 6.98h.432c.263 0 .351-.08.351-.344V6.21c0-.263-.088-.344-.351-.344h-.432c-.257 0-.345.08-.345.344v.425c0 .264.088.344.345.344Zm2.402 0h.425c.263 0 .351-.08.351-.344V6.21c0-.263-.088-.344-.351-.344h-.425c-.264 0-.352.08-.352.344v.425c0 .264.088.344.352.344Zm2.395 0h.425c.263 0 .351-.08.351-.344V6.21c0-.263-.088-.344-.351-.344h-.425c-.264 0-.352.08-.352.344v.425c0 .264.088.344.352.344ZM4.5 9.338h.433c.263 0 .351-.08.351-.344v-.425c0-.264-.088-.344-.351-.344H4.5c-.256 0-.344.08-.344.344v.425c0 .263.088.344.344.344Zm2.396 0h.432c.263 0 .351-.08.351-.344v-.425c0-.264-.088-.344-.351-.344h-.432c-.257 0-.345.08-.345.344v.425c0 .263.088.344.345.344Zm2.402 0h.425c.263 0 .351-.08.351-.344v-.425c0-.264-.088-.344-.351-.344h-.425c-.264 0-.352.08-.352.344v.425c0 .263.088.344.352.344Zm2.395 0h.425c.263 0 .351-.08.351-.344v-.425c0-.264-.088-.344-.351-.344h-.425c-.264 0-.352.08-.352.344v.425c0 .263.088.344.352.344ZM4.5 11.696h.433c.263 0 .351-.08.351-.344v-.425c0-.263-.088-.344-.351-.344H4.5c-.256 0-.344.08-.344.344v.425c0 .264.088.344.344.344Zm2.396 0h.432c.263 0 .351-.08.351-.344v-.425c0-.263-.088-.344-.351-.344h-.432c-.257 0-.345.08-.345.344v.425c0 .264.088.344.345.344Zm2.402 0h.425c.263 0 .351-.08.351-.344v-.425c0-.263-.088-.344-.351-.344h-.425c-.264 0-.352.08-.352.344v.425c0 .264.088.344.352.344Z"/></svg>