<svg xmlns="http://www.w3.org/2000/svg" width="32" height="23" fill="none"><path fill="#fff" d="M20.484 4.854a.986.986 0 0 0 .967-.977V1.653a.972.972 0 0 0-1.944 0v2.224c0 .526.44.977.977.977Zm-6.38 2.074a.992.992 0 0 0 1.385.01.986.986 0 0 0-.01-1.364l-1.58-1.59a.966.966 0 0 0-1.364 0 .966.966 0 0 0 0 1.365l1.569 1.579Zm11.376.01c.365.376.998.376 1.385-.01l1.569-1.569a.979.979 0 0 0 0-1.375.966.966 0 0 0-1.365 0l-1.59 1.59a.976.976 0 0 0 0 1.364Zm-2.138 9.582c1.547-1.052 2.514-2.696 2.514-4.586a5.362 5.362 0 0 0-5.372-5.382c-1.965 0-3.674 1.052-4.565 2.589.473.472.86.988 1.192 1.622 3.491.268 5.876 2.503 6.23 5.757ZM4.618 22.74h11.913c3.083 0 5.457-2.342 5.457-5.382 0-3.061-2.438-5.35-5.715-5.37-1.203-2.289-3.394-3.814-6.22-3.814-3.576 0-6.584 2.75-6.917 6.338-1.826.526-3.051 2.094-3.051 4.06 0 2.45 1.815 4.168 4.533 4.168ZM28.52 12.9h2.224c.537 0 .967-.43.967-.966a.963.963 0 0 0-.967-.967H28.52a.979.979 0 0 0-.978.967c0 .537.451.966.977.966Zm-1.45 6.994a.966.966 0 0 0 1.365-.011.966.966 0 0 0-.011-1.364l-1.58-1.58a.976.976 0 0 0-1.363 0 .99.99 0 0 0 0 1.375l1.59 1.58Z"/></svg>