<svg xmlns="http://www.w3.org/2000/svg" width="25" height="25" fill="none"><path fill="#F8D74A" d="M13.953 1.352c0-.591-.494-1.085-1.074-1.085-.59 0-1.085.494-1.085 1.085v2.191c0 .58.494 1.074 1.085 1.074.58 0 1.074-.494 1.074-1.074V1.352Zm4.297 4.006a1.08 1.08 0 0 0 .01 1.515 1.083 1.083 0 0 0 1.526-.01l1.547-1.548c.419-.419.408-1.117 0-1.536-.408-.408-1.106-.397-1.515.011L18.25 5.358ZM5.96 6.862a1.08 1.08 0 0 0 1.516.011c.419-.397.419-1.117.021-1.515L5.94 3.79c-.397-.397-1.106-.419-1.514-.01-.408.418-.42 1.116-.01 1.525L5.96 6.862Zm6.908-.268c-3.083 0-5.64 2.556-5.64 5.65 0 3.094 2.557 5.65 5.64 5.65 3.083 0 5.64-2.556 5.64-5.65 0-3.094-2.557-5.65-5.64-5.65Zm10.882 6.724c.58 0 1.074-.494 1.074-1.074 0-.59-.494-1.074-1.074-1.074h-2.18c-.58 0-1.075.483-1.075 1.074 0 .58.494 1.074 1.074 1.074h2.181ZM1.997 11.17c-.58 0-1.074.483-1.074 1.074 0 .58.494 1.074 1.074 1.074h2.18c.592 0 1.086-.494 1.086-1.074 0-.59-.494-1.074-1.085-1.074h-2.18Zm17.778 6.456c-.408-.408-1.106-.408-1.525 0a1.093 1.093 0 0 0 .01 1.525l1.558 1.558a1.093 1.093 0 0 0 1.526-.021 1.08 1.08 0 0 0-.011-1.515l-1.558-1.547Zm-15.36 1.536c-.42.42-.42 1.117-.022 1.526.419.408 1.117.418 1.525.01l1.558-1.547a1.09 1.09 0 0 0 .021-1.514 1.106 1.106 0 0 0-1.536-.011l-1.547 1.536Zm9.538 1.783c0-.58-.494-1.074-1.074-1.074-.59 0-1.085.494-1.085 1.074v2.192c0 .58.494 1.085 1.085 1.085.58 0 1.074-.505 1.074-1.085v-2.192Z"/></svg>